<svg xmlns="http://www.w3.org/2000/svg" width="98.872" height="99.977" viewBox="0 0 98.872 99.977">
  <g id="Layer_2" data-name="Layer 2" transform="translate(-0.016 -0.001)">
    <g id="Layer_1" data-name="Layer 1" transform="translate(0.016 0.001)">
      <path id="Trazado_37" data-name="Trazado 37" d="M48.473,47.454a38.076,38.076,0,0,0,1.276,5.433,40.439,40.439,0,0,0,3.809,8.6,42.739,42.739,0,0,0,5.951,7.8c.528.555,1.1,1.061,1.655,1.579A38.972,38.972,0,0,0,64.27,73.46,41.8,41.8,0,0,0,68.255,76.1a38.946,38.946,0,0,0,6.642,3.1,40.887,40.887,0,0,0,4.646,1.374q1.9.439,3.837.7a29.81,29.81,0,0,0,4.361.3c1.526-.024,3.05.046,4.576-.122.644-.07,1.3-.111,1.939-.2a41.684,41.684,0,0,0,5.724-1.2,40.849,40.849,0,0,0,16.949-9.723c.857-.824,1.691-1.667,2.474-2.57.9-1.035,1.759-2.1,2.557-3.213a41.123,41.123,0,0,0,4.739-8.668,37.991,37.991,0,0,0,1.7-5.314,42.087,42.087,0,0,0,1-5.97c.109-1.207.122-2.407.211-3.624.043-.606-.07-1.211-.081-1.815a36.012,36.012,0,0,0-.409-4.483A40.885,40.885,0,0,0,97.79.945C96.608.675,95.416.469,94.221.3,93.264.171,92.3.077,91.34.025c-.85-.046-1.705-.011-2.559-.011a37.618,37.618,0,0,0-3.766.1c-.935.1-1.878.185-2.8.344a45.384,45.384,0,0,0-4.531,1,41.169,41.169,0,0,0-6.546,2.465,39.9,39.9,0,0,0-6.357,3.785,41.589,41.589,0,0,0-4.674,3.955c-.556.556-1.093,1.126-1.626,1.705a36.514,36.514,0,0,0-2.361,2.852A40.957,40.957,0,0,0,50.4,26.712a40.3,40.3,0,0,0-2.407,11.553,36.879,36.879,0,0,0,.065,5.72C48.169,45.145,48.3,46.3,48.473,47.454ZM65.211,20.832Q76.849,14.418,88.5,8.015c.813-.448.524-.461,1.313,0q11.24,6.648,22.472,13.3c.778.461.652.224.652,1.143V48.6c0,.915.128.678-.668,1.12Q100.7,56.152,89.15,62.57c-.644.357-.48.383-1.137,0q-5.937-3.518-11.873-7.027c-.741-.443-.576-.476-1.055.237q-5,7.427-10,14.862c-.135.2-.276.4-.415.6l-.13-.05V21.956C64.546,21.057,64.4,21.281,65.211,20.832Z" transform="translate(-39.043 -0.001)" fill="#079307"/>
      <path id="Trazado_38" data-name="Trazado 38" d="M122.044,530.207c-.643-.087-1.287-.185-1.935-.222-.715-.046-1.431-.068-2.148-.133-1.339-.122-2.683-.2-4.026-.28-.874-.048-1.748-.048-2.622-.124-.915-.081-1.835-.061-2.755-.128-1.228-.093-2.465-.059-3.7-.15s-2.42-.019-3.631-.119c-1.3-.109-2.6.015-3.9-.15-2.9.013-5.79-.074-8.685-.141-.718-.017-1.439,0-2.157-.013-1.322-.011-2.646-.07-3.968-.091-2.265-.035-4.529-.07-6.8.061-2.239.13-4.487,0-6.729.143-1.791.107-3.589-.018-5.383.13-1.272.106-2.555.043-3.833.13-1.431.1-2.87.015-4.305.144-.981.087-1.97.074-2.963.12-1.367.063-2.733.154-4.1.165-1.168,0-2.326.2-3.5.161-.067,0-.133.015-.2.019-.983.074-1.967.154-2.952.217-.537.033-1.085-.021-1.613.065-.822.13-1.654.124-2.478.206s-1.563.33-2.376.33a.819.819,0,0,0,.317.068c.541.03,1.072-.087,1.609-.107,1.457-.061,2.915-.028,4.372-.154,1.183-.1,2.374-.035,3.563-.137,1.3-.109,2.592-.044,3.9-.137,1.631-.117,3.272-.056,4.911-.122,3.452-.141,6.912.057,10.37-.159H78.681c4.785,0,9.568-.039,14.351-.017s9.564-.1,14.343.126c1.726.081,3.453.035,5.185.109s3.45.185,5.185.185a2.1,2.1,0,0,1,.4.017c1.041.2,2.1.1,3.148.211a19.17,19.17,0,0,0,2.953.17.6.6,0,0,1,.2.02,4.437,4.437,0,0,0,1.4.08c-.8-.128-1.591-.263-2.391-.359C122.981,530.28,122.511,530.269,122.044,530.207Z" transform="translate(-28.758 -430.739)" fill="#079307"/>
      <path id="Trazado_39" data-name="Trazado 39" d="M129.531,486.019a2.208,2.208,0,0,0,.722-.046c.056-.2.107-.37.15-.543l1.226-4.894a1.732,1.732,0,0,1,.08-.257c.028-.065,0-.185.185-.165.659,1.931,1.25,3.9,1.928,5.907h2.341c.309,0,.337-.024.417-.322.211-.8.415-1.607.624-2.407l1.111-4.3c.048-.185,0-.259-.185-.267a5.255,5.255,0,0,0-.539,0c-.265.018-.589-.117-.776.082a1.62,1.62,0,0,0-.228.689q-.594,2.346-1.183,4.7c-.028.107-.052.219-.089.322-.011.033-.057.059-.093.078s-.074,0-.093-.057c-.052-.148-.109-.294-.157-.443l-1.505-4.676c-.054-.17-.107-.343-.169-.511a.252.252,0,0,0-.254-.185H130.77a.222.222,0,0,0-.243.185c-.026.109-.067.215-.094.324q-.817,3.159-1.629,6.32a.52.52,0,0,0,0,.474C129.037,486.021,129.283,486.028,129.531,486.019Z" transform="translate(-104.906 -390.058)" fill="#fefffe"/>
      <path id="Trazado_40" data-name="Trazado 40" d="M48.966,482.275a4.055,4.055,0,0,0,.617-2.239,1.061,1.061,0,0,0-.794-1.05,3.493,3.493,0,0,0-1.128-.168H43.549c-.343,0-.348,0-.443.37q-.741,2.833-1.468,5.668c-.1.389-.2.78-.318,1.268h1.359a.246.246,0,0,0,.246-.185c.033-.106.056-.217.083-.324.141-.544.278-1.087.424-1.629.069-.257.12-.3.37-.3h2.155a1.842,1.842,0,0,1,.335.033.618.618,0,0,1,.541.781c-.033.2-.113.389-.15.587a3.863,3.863,0,0,0-.2,1.026c.424.028.848.013,1.268.011.294,0,.3-.009.387-.339.111-.411.222-.822.322-1.237.2-.854.024-1.163-.863-1.463.213-.072.4-.128.583-.2A1.542,1.542,0,0,0,48.966,482.275Zm-1.128-1.515a5.315,5.315,0,0,1-.139.657,1.3,1.3,0,0,1-1.178,1.039,22.9,22.9,0,0,1-2.626-.039,1.381,1.381,0,0,1,.022-.261c.15-.609.3-1.218.461-1.826.069-.261.117-.3.37-.3.763,0,1.526,0,2.289.009a1.6,1.6,0,0,1,.269.02A.553.553,0,0,1,47.838,480.761Z" transform="translate(-33.672 -390.155)" fill="#fefffe"/>
      <path id="Trazado_41" data-name="Trazado 41" d="M453.063,478.8h-4.039a2.037,2.037,0,0,0-.335.018.289.289,0,0,0-.252.185,2.444,2.444,0,0,0-.107.317q-.8,3.061-1.589,6.12a.973.973,0,0,0-.069.585.717.717,0,0,0,.459.078h4.174a4.537,4.537,0,0,0,1.061-.161,2.427,2.427,0,0,0,1.5-1.065,6.836,6.836,0,0,0,.926-2.081c.117-.433.2-.874.324-1.305a3.592,3.592,0,0,0,.115-1.131,1.37,1.37,0,0,0-.974-1.381A3.258,3.258,0,0,0,453.063,478.8Zm.415,2.291a12.113,12.113,0,0,1-.593,2.407,1.782,1.782,0,0,1-1.972,1.378H448.9c-.235,0-.311-.115-.265-.354.03-.154.072-.305.113-.457q.455-1.754.913-3.518c.03-.107.05-.219.083-.324a.339.339,0,0,1,.337-.276,13.807,13.807,0,0,1,2.681.087C453.393,480.172,453.578,480.433,453.478,481.09Z" transform="translate(-363.943 -390.138)" fill="#079307"/>
      <path id="Trazado_42" data-name="Trazado 42" d="M401.389,486.09c.156.015.313.02.47.022h1.894c.7,0,1.392.013,2.087,0a3.022,3.022,0,0,0,2.868-1.757,13.365,13.365,0,0,0,1.074-3.666,1.528,1.528,0,0,0-1.031-1.7,3.422,3.422,0,0,0-1.257-.185h-3.637c-.942,0-.844-.1-1.085.807-.517,1.95-1.013,3.907-1.515,5.862a1.9,1.9,0,0,0-.059.4A.205.205,0,0,0,401.389,486.09Zm1.744-1.531.37-1.5q.328-1.272.663-2.54c.028-.107.065-.213.1-.32a.292.292,0,0,1,.287-.241,14.549,14.549,0,0,1,2.753.089.988.988,0,0,1,.433.168.756.756,0,0,1,.281.781c-.069.4-.161.791-.252,1.183a9.407,9.407,0,0,1-.5,1.6,1.715,1.715,0,0,1-1.631,1.092c-.381.022-.765,0-1.146,0h-1.144C403.152,484.867,403.083,484.764,403.133,484.558Z" transform="translate(-326.91 -390.142)" fill="#079307"/>
      <path id="Trazado_43" data-name="Trazado 43" d="M94.522,480.065a1.324,1.324,0,0,0-1.111-1.52,9.535,9.535,0,0,0-3.8-.087,2.5,2.5,0,0,0-1.887,1.367,7.6,7.6,0,0,0-.5,1.1c-.25.789-.463,1.591-.67,2.392a3.129,3.129,0,0,0-.061,1.137,1.154,1.154,0,0,0,.774,1.022,3.8,3.8,0,0,0,.381.124,8.034,8.034,0,0,0,1.935.185,11.561,11.561,0,0,0,2-.185,2.45,2.45,0,0,0,1.689-1.217,5.219,5.219,0,0,0,.52-1.161c.222-.774.435-1.552.633-2.333A3.741,3.741,0,0,0,94.522,480.065Zm-1.681.389a2.171,2.171,0,0,1-.07.463c-.2.755-.409,1.509-.618,2.263-.03.107-.078.209-.117.315a1.482,1.482,0,0,1-1.3,1.02,5.684,5.684,0,0,1-2,0,.611.611,0,0,1-.572-.7,3.353,3.353,0,0,1,.107-.728c.169-.694.335-1.391.539-2.076.37-1.228.741-1.372,1.852-1.482a5.217,5.217,0,0,1,.535,0V479.5a8.265,8.265,0,0,1,.926.08c.574.094.746.339.72.876Z" transform="translate(-70.452 -389.738)" fill="#fefffe"/>
      <path id="Trazado_44" data-name="Trazado 44" d="M180.946,485.53a4.512,4.512,0,0,0,.855.167c.424.041.85.048,1.185.067a12.7,12.7,0,0,0,2.1-.2,2.485,2.485,0,0,0,1.687-1.215,5.911,5.911,0,0,0,.555-1.3q.291-1,.541-2.011a4.444,4.444,0,0,0,.154-1.063,1.286,1.286,0,0,0-1.122-1.439,9.15,9.15,0,0,0-3.739-.1,2.534,2.534,0,0,0-1.948,1.387,7.676,7.676,0,0,0-.474,1.037q-.37,1.111-.652,2.257a3.574,3.574,0,0,0-.137,1.131A1.29,1.29,0,0,0,180.946,485.53Zm.783-2.254c.2-.8.413-1.6.626-2.407a3.06,3.06,0,0,1,.135-.37,1.378,1.378,0,0,1,1.139-.926,7.372,7.372,0,0,1,1.067-.083,5.532,5.532,0,0,1,.878.039.483.483,0,0,1,.124.028.75.75,0,0,1,.641.935,3.338,3.338,0,0,1-.057.331q-.285,1.274-.693,2.518a1.592,1.592,0,0,1-1.467,1.176,5.912,5.912,0,0,1-1.868-.026c-.43-.091-.569-.256-.572-.691a2.121,2.121,0,0,1,.048-.524Z" transform="translate(-146.627 -389.728)" fill="#fefffe"/>
      <path id="Trazado_45" data-name="Trazado 45" d="M228.3,480.552a7.476,7.476,0,0,0,1.367,0,1.066,1.066,0,0,0,.2-.578c.106-.937-.2-1.337-1.135-1.461a13.407,13.407,0,0,0-3.416,0,2.222,2.222,0,0,0-1.567.818,3.148,3.148,0,0,0-.656,2.144.882.882,0,0,0,.741.909,5.781,5.781,0,0,0,.926.169c.6.056,1.207.078,1.811.122a3.985,3.985,0,0,1,.665.089.444.444,0,0,1,.35.439,1.318,1.318,0,0,1-1.155,1.472,2.419,2.419,0,0,1-.4.028h-1.28a1.92,1.92,0,0,1-.4-.031.609.609,0,0,1-.517-.68c0-.154.1-.3.039-.481a2.639,2.639,0,0,0-.785-.048q-.268,0-.539.011a.207.207,0,0,0-.194.159,2.942,2.942,0,0,0-.143,1.061.982.982,0,0,0,.867.967,6.845,6.845,0,0,0,.926.13c.874.059,1.748.026,2.622,0a3.619,3.619,0,0,0,.926-.17,1.852,1.852,0,0,0,1.094-.839,4.419,4.419,0,0,0,.606-1.7,1.8,1.8,0,0,0-.044-.667.87.87,0,0,0-.609-.659,4.634,4.634,0,0,0-.656-.143,12.592,12.592,0,0,0-2.011-.141,2.426,2.426,0,0,1-.861-.124.47.47,0,0,1-.333-.455,1.209,1.209,0,0,1,1.072-1.313,7.042,7.042,0,0,1,1.411-.056,3.986,3.986,0,0,1,.533.065.53.53,0,0,1,.48.556C228.26,480.271,228.192,480.409,228.3,480.552Z" transform="translate(-181.067 -389.818)" fill="#fefffe"/>
      <path id="Trazado_46" data-name="Trazado 46" d="M360.131,485.521a6.507,6.507,0,0,0,2.333.157,3.721,3.721,0,0,1,.537-.039,4.907,4.907,0,0,0,1.063-.154,2.408,2.408,0,0,0,1.7-1.3,7.256,7.256,0,0,0,.6-1.494c.148-.541.313-1.078.437-1.624a4.522,4.522,0,0,0,.185-1.261,1.315,1.315,0,0,0-1.028-1.329c-.172-.054-.348-.087-.524-.124a10.2,10.2,0,0,0-2.278-.137,6.55,6.55,0,0,0-1.391.224,2.389,2.389,0,0,0-1.524,1.133,5.827,5.827,0,0,0-.383.709,18.127,18.127,0,0,0-.926,3.09,2.321,2.321,0,0,0-.041.411C358.875,484.889,359.175,485.313,360.131,485.521Zm.567-2.407c.185-.781.418-1.554.611-2.335a1.606,1.606,0,0,1,1.631-1.32c.468-.024.941-.018,1.409,0a1.445,1.445,0,0,1,.452.111.609.609,0,0,1,.435.611,2.853,2.853,0,0,1-.054.667c-.185.741-.4,1.466-.6,2.2-.043.15-.106.294-.163.441a1.394,1.394,0,0,1-1.211.926l-1.063.13a5,5,0,0,1-1-.141.526.526,0,0,1-.489-.555,2.622,2.622,0,0,1,.041-.737Z" transform="translate(-292.441 -389.656)" fill="#079307"/>
      <path id="Trazado_47" data-name="Trazado 47" d="M498.913,478.363c-.244-.031-.487-.074-.741-.093a11.634,11.634,0,0,0-3.085.119,1.981,1.981,0,0,0-1.015.5,2.957,2.957,0,0,0-.885,2.639.8.8,0,0,0,.587.674c.107.033.217.059.326.083a11.272,11.272,0,0,0,2.2.244,7.18,7.18,0,0,1,.872.048.483.483,0,0,1,.433.37,1.265,1.265,0,0,1-.913,1.494,6.669,6.669,0,0,1-2.144.063c-.448-.035-.63-.265-.578-.741.056-.515-.141-.535-.533-.531-.246,0-.494,0-.741.02a.306.306,0,0,0-.293.239,3.648,3.648,0,0,0-.146.859,1.052,1.052,0,0,0,.9,1.159,4.762,4.762,0,0,0,1,.133h1.213v-.011c.492,0,.989.024,1.481,0a2.262,2.262,0,0,0,1.637-.682,3.557,3.557,0,0,0,.868-2.222,1.057,1.057,0,0,0-.968-1.239,7.247,7.247,0,0,0-1.4-.176c-.359,0-.718-.009-1.078-.011a2.08,2.08,0,0,1-.787-.165.457.457,0,0,1-.3-.415,1.207,1.207,0,0,1,1.111-1.287,15.485,15.485,0,0,1,1.683-.009c.489.02.594.148.665.661.048.344.076.37.409.389.157.009.315,0,.472,0,.659,0,.674-.02.776-.65a.123.123,0,0,1,.013-.067A1.082,1.082,0,0,0,498.913,478.363Z" transform="translate(-401.111 -389.667)" fill="#079307"/>
      <path id="Trazado_48" data-name="Trazado 48" d="M322.838,480.738h.741c1.054-.02.863.176,1.042-.926a1.207,1.207,0,0,0-1.122-1.518,10,10,0,0,0-2.681-.046,6.721,6.721,0,0,0-1.579.309,2.472,2.472,0,0,0-1.374,1.122,3.926,3.926,0,0,0-.448,1.046q-.335,1.337-.637,2.681a2.534,2.534,0,0,0-.035.67,1.385,1.385,0,0,0,1.085,1.367,2.853,2.853,0,0,0,.593.12,18.355,18.355,0,0,0,2.689-.022,5.468,5.468,0,0,0,.985-.2,2.37,2.37,0,0,0,1.768-2.192.156.156,0,0,0-.144-.185c-.313-.013-.628-.013-.943-.011-.417,0-.435,0-.539.409a1.212,1.212,0,0,1-1.18,1.007,10.987,10.987,0,0,1-1.746,0,1.964,1.964,0,0,1-.457-.111.515.515,0,0,1-.37-.5,3.33,3.33,0,0,1,.054-.741c.115-.555.246-1.094.394-1.635a11.4,11.4,0,0,1,.383-1.144,1.035,1.035,0,0,1,.706-.676,5.862,5.862,0,0,1,2.537-.052c.3.063.4.228.38.541C322.919,480.259,322.879,480.455,322.838,480.738Z" transform="translate(-258.089 -389.635)" fill="#fefffe"/>
      <path id="Trazado_49" data-name="Trazado 49" d="M7.372,482.6a4.555,4.555,0,0,0,.659-2.435,1.1,1.1,0,0,0-.95-1.2,5.952,5.952,0,0,0-1.535-.165H2.115c-.259.013-.267.02-.352.3-.013.043-.026.085-.037.13q-.835,3.22-1.667,6.438a.487.487,0,0,0,.015.431H1.185c.317,0,.348-.02.424-.306.159-.583.3-1.172.459-1.755.067-.246.124-.3.37-.3H4.322A11.291,11.291,0,0,0,5.6,483.68,2.324,2.324,0,0,0,7.372,482.6Zm-1.448-.546a.887.887,0,0,1-.668.4,5.8,5.8,0,0,1-.741.063c-.556.009-1.122,0-1.683,0a.454.454,0,0,1-.344-.109c.185-.717.37-1.452.556-2.187a.307.307,0,0,1,.333-.263c.694.013,1.391.015,2.085.028a2.191,2.191,0,0,1,.465.063.489.489,0,0,1,.42.53,2.989,2.989,0,0,1-.422,1.474Z" transform="translate(-0.016 -390.141)" fill="#fefffe"/>
      <path id="Trazado_50" data-name="Trazado 50" d="M268.539,486.058a9.507,9.507,0,0,0,1.609,0c.185-.72.37-1.435.556-2.15.311-1.194.617-2.389.926-3.583.081-.309.1-.317.4-.326h1.887c.113,0,.233,0,.28-.137a5.061,5.061,0,0,0,.27-1.074h-5.7c-1.017,0-.756-.141-1.035.818a.456.456,0,0,0,0,.359c.741.093,1.5-.028,2.292.074-.206,1.03-.513,2.011-.754,3.009S268.738,485.021,268.539,486.058Z" transform="translate(-218.133 -390.125)" fill="#fefffe"/>
      <path id="Trazado_51" data-name="Trazado 51" d="M300.107,485.924c.03-.1.056-.185.078-.276.507-1.95,1.02-3.9,1.517-5.853a2.31,2.31,0,0,0,.2-1.1,4.916,4.916,0,0,0-1.131-.054h-.2a.246.246,0,0,0-.244.185c-.031.107-.055.219-.083.326q-.833,3.218-1.667,6.44a.4.4,0,0,0,.017.346A8.152,8.152,0,0,0,300.107,485.924Z" transform="translate(-243.262 -390.006)" fill="#fefffe"/>
      <path id="Trazado_52" data-name="Trazado 52" d="M137.69,104.29v.661l.13.05c.139-.2.28-.394.415-.6q5-7.429,10-14.862c.48-.713.307-.68,1.055-.237q5.938,3.507,11.873,7.027c.657.389.493.37,1.137,0q11.549-6.416,23.111-12.843c.8-.443.668-.206.668-1.12V56.231c0-.926.126-.681-.652-1.143q-11.233-6.655-22.472-13.3c-.789-.465-.5-.452-1.313,0Q150,48.183,138.357,54.6c-.815.448-.665.224-.665,1.111Q137.687,80.007,137.69,104.29Zm2.7-27.318V57.158a3.626,3.626,0,0,0,0-.47.625.625,0,0,1,.407-.68c2.331-1.3,4.655-2.615,6.983-3.924l13.9-7.822c.72-.406.491-.413,1.187,0q10.077,6.037,20.154,12.079a1.724,1.724,0,0,0,.23.139.626.626,0,0,1,.387.691c-.009,2.92,0,5.84,0,8.759V81.158c0,.8.111.6-.556.981q-10.407,5.866-20.824,11.723c-.622.35-.4.35-1.011-.011q-6.348-3.75-12.688-7.511c-.7-.417-.572-.459-1,.222q-3.383,5.364-6.748,10.72c-.094.152-.139.454-.37.387-.148-.044-.056-.322-.056-.493Q140.39,87.078,140.394,76.972Z" transform="translate(-112.19 -33.77)" fill="#fefffe"/>
      <path id="Trazado_53" data-name="Trazado 53" d="M201.784,484.814a5.557,5.557,0,0,0-.878-.039,7.372,7.372,0,0,0-1.067.083,7.372,7.372,0,0,1,1.067-.083A5.557,5.557,0,0,1,201.784,484.814Z" transform="translate(-162.838 -395.006)" fill="#2b2b2b"/>
      <path id="Trazado_54" data-name="Trazado 54" d="M152.277,108.746c.228.067.272-.235.37-.387q3.372-5.357,6.733-10.721c.428-.681.3-.639,1-.222q6.344,3.752,12.688,7.511c.611.361.389.361,1.011.011q10.416-5.855,20.824-11.723c.67-.37.556-.185.556-.981V68.245a.629.629,0,0,0-.387-.691,1.722,1.722,0,0,1-.23-.139q-10.07-6.04-20.147-12.079c-.7-.417-.467-.409-1.187,0q-6.955,3.907-13.9,7.822c-2.328,1.309-4.651,2.624-6.983,3.924a.625.625,0,0,0-.407.68,3.61,3.61,0,0,1,0,.47v40.027C152.221,108.424,152.129,108.7,152.277,108.746Zm2.579-40.519q9.3-5.211,18.617-10.41c.754-.422.47-.433,1.248.03q9.051,5.383,18.1,10.781c.754.45.624.226.626,1.087V90.8a3.323,3.323,0,0,0,0,.47c.044.3-.117.444-.354.576q-2.472,1.368-4.937,2.752l-13.919,7.777c-.765.428-.539.422-1.254,0q-9.073-5.4-18.156-10.81c-.117-.07-.228-.146-.346-.209a.411.411,0,0,1-.256-.428c.013-.156,0-.313,0-.47V69.3C154.234,68.447,154.1,68.649,154.856,68.227Z" transform="translate(-124.014 -44.838)" fill="#079307"/>
      <path id="Trazado_55" data-name="Trazado 55" d="M163.188,101.336c0,.157.011.315,0,.47a.411.411,0,0,0,.256.428c.119.063.23.139.346.209q9.073,5.405,18.156,10.81c.715.426.489.431,1.254,0q6.964-3.889,13.919-7.777,2.466-1.38,4.937-2.752c.237-.131.4-.276.354-.576a3.314,3.314,0,0,1,0-.47V80.592c0-.861.128-.637-.626-1.087q-9.044-5.4-18.1-10.781c-.778-.463-.494-.452-1.248-.03q-9.314,5.2-18.617,10.41c-.754.422-.622.22-.624,1.081Q163.185,90.761,163.188,101.336Zm9.668-16.943q2.842-1.6,5.692-3.191c1.35-.755,2.7-1.505,4.046-2.276a.581.581,0,0,1,.674.013q4.844,2.911,9.707,5.794a.741.741,0,0,1,.4.759q-.011,1.413-.009,2.828t0,2.829v5.32a3.65,3.65,0,0,0,0,.4.457.457,0,0,1-.322.52,3.252,3.252,0,0,0-.293.163l-9.568,5.37c-.1.056-.2.107-.291.169a.359.359,0,0,1-.437,0c-.113-.074-.231-.137-.346-.206l-9.364-5.581a3.232,3.232,0,0,0-.289-.174.4.4,0,0,1-.254-.428c.011-.135,0-.27,0-.406V85.46C172.212,84.6,172.077,84.832,172.856,84.393Z" transform="translate(-132.972 -55.716)" fill="#fefffe"/>
      <path id="Trazado_56" data-name="Trazado 56" d="M211.894,142.277c0,.135.009.27,0,.406a.4.4,0,0,0,.254.428c.1.048.185.117.289.174l9.364,5.581c.115.069.233.131.346.206a.359.359,0,0,0,.437,0c.093-.061.194-.113.291-.169l9.568-5.37a3.256,3.256,0,0,1,.293-.163.457.457,0,0,0,.322-.52,3.672,3.672,0,0,1,0-.4V134.3q0-1.417.009-2.828a.74.74,0,0,0-.4-.759q-4.863-2.878-9.707-5.794a.581.581,0,0,0-.674-.013c-1.343.77-2.7,1.52-4.046,2.276l-5.692,3.191c-.78.439-.644.217-.644,1.065Q211.886,136.855,211.894,142.277Z" transform="translate(-172.657 -101.693)" fill="#079307"/>
      <path id="Trazado_57" data-name="Trazado 57" d="M326.18,184.229v0Z" transform="translate(-265.784 -143.475)" fill="#079307"/>
    </g>
  </g>
</svg>
